<svg width="24" height="20" viewBox="0 0 24 20" fill="none" xmlns="http://www.w3.org/2000/svg">
<path d="M24 13.25C24 14 22.8 14.5 21.4 14.75C20.5 12.625 18.7 11 16.6 9.875C16.8 9.5 17 9.25 17.2 8.875H18C21.1 8.75 24 11.125 24 13.25V13.25ZM6.8 8.75H6C2.9 8.75 0 11.125 0 13.25C0 14 1.2 14.5 2.6 14.75C3.5 12.625 5.3 11 7.4 9.875L6.8 8.75V8.75ZM12 10C14.2 10 16 7.75 16 5C16 2.25 14.2 0 12 0C9.8 0 8 2.25 8 5C8 7.75 9.8 10 12 10ZM12 11.25C7.9 11.25 4 14.5 4 17.5C4 20 12 20 12 20C12 20 20 20 20 17.5C20 14.5 16.1 11.25 12 11.25ZM17.7 7.5H18C19.7 7.5 21 5.875 21 3.75C21 1.625 19.7 0 18 0C17.5 0 17.1 0.125 16.7 0.375C17.5 1.625 18 3.25 18 5C18 5.875 17.9 6.75 17.7 7.5ZM6 7.5H6.3C6.1 6.75 6 5.875 6 5C6 3.25 6.5 1.625 7.3 0.375C6.9 0.125 6.5 0 6 0C4.3 0 3 1.625 3 3.75C3 5.875 4.3 7.5 6 7.5Z" fill="#717171"/>
</svg>
