<svg xmlns="http://www.w3.org/2000/svg" x="0px" y="0px"
width="35" height="35"
viewBox="0 0 172 172"
style=" fill:#000000;"><g fill="none" fill-rule="nonzero" stroke="none" stroke-width="1" stroke-linecap="butt" stroke-linejoin="miter" stroke-miterlimit="10" stroke-dasharray="" stroke-dashoffset="0" font-family="none" font-weight="none" font-size="none" text-anchor="none" style="mix-blend-mode: normal"><path d="M0,172v-172h172v172z" fill="none"></path><g fill="#ffffff"><path d="M83.85,19.35c-14.4957,0 -26.41309,4.47637 -34.63516,12.72363c-8.23047,8.24726 -12.66484,20.16465 -12.66484,34.57637c0,7.12188 2.39355,17.30918 4.36719,24.85938c-2.42715,1.20098 -4.36719,3.2418 -4.36719,6.10566c0,1.65449 0.5291,3.2502 0.98262,4.80391c0.22676,0.77266 0.45352,1.50332 0.60469,2.06601c0.15117,0.57109 0.20156,1.1002 0.20156,0.86504c0,3.58613 3.04024,6.45 6.63477,6.45h0.17637v0.10918c0,19.92949 14.32774,36.49961 33.23262,40.06895c2.09961,1.68809 4.70313,2.82187 7.61738,2.82187c2.91426,0 5.51777,-1.13379 7.61738,-2.82187c18.90488,-3.56934 33.23262,-20.13945 33.23262,-40.06895v-0.10918h0.17637c3.58613,0 6.63477,-2.86387 6.63477,-6.45c0,0.23516 0.05039,-0.29395 0.20156,-0.86504c0.15117,-0.56269 0.37793,-1.29336 0.60469,-2.06601c0.45351,-1.55371 0.98262,-3.14941 0.98262,-4.80391c0,-2.83027 -1.89805,-4.88789 -4.2916,-6.09727c1.88125,-8.80996 4.2916,-21.02129 4.2916,-28.04238c0,-21.16406 -13.55508,-30.25117 -24.44785,-30.94824c-0.60469,-1.10019 -2.05762,-3.48535 -5.45898,-6.24844c-4.3168,-3.49375 -11.3127,-6.92871 -21.69316,-6.92871zM83.85,23.65c9.44824,0 15.35234,3.01504 18.98047,5.97129c3.62812,2.94785 4.87109,5.68574 4.87109,5.68574l0.57109,1.24297h1.37734c8.75957,0 21.5,6.76914 21.5,26.92539c0,6.27363 -2.58672,19.82871 -4.47637,28.60508l-0.48711,2.22559l2.25918,0.35274c1.57891,0.24355 2.7043,1.46973 2.7043,2.94785v0.0084c0,0.41992 -0.36953,2.09121 -0.80625,3.59453c-0.22676,0.74746 -0.45351,1.48652 -0.63828,2.1584c-0.17637,0.66348 -0.34434,1.15059 -0.34434,1.98203c0,1.16738 -0.97422,2.15 -2.33477,2.15h-4.47637v4.40918c0,18.00625 -12.99238,32.89668 -30.1,35.94531l-0.60469,0.11758l-0.46191,0.41152c-1.44453,1.31855 -3.30898,2.11641 -5.3834,2.11641c-2.07441,0 -3.93887,-0.79785 -5.3834,-2.11641l-0.46191,-0.41152l-0.60469,-0.11758c-17.10762,-3.04863 -30.1,-17.93906 -30.1,-35.94531v-4.40918h-4.47637c-1.36055,0 -2.33477,-0.98262 -2.33477,-2.15c0,-0.83145 -0.16797,-1.31855 -0.35273,-1.98203c-0.18477,-0.67187 -0.40313,-1.41094 -0.62988,-2.1584c-0.43672,-1.50332 -0.80625,-3.17461 -0.80625,-3.59453c0,-1.50332 1.15899,-2.75469 2.78828,-2.96465l2.43555,-0.31074l-0.62988,-2.36836c-1.99883,-7.5082 -4.59395,-18.8377 -4.59395,-25.32129c0,-13.53828 4.09004,-24.1959 11.40508,-31.53613c7.31504,-7.34023 17.97266,-11.46387 31.59492,-11.46387zM103.53594,49.41641l-0.66348,0.36953l-0.16797,0.14277l-0.75586,1.77207l0.95742,1.67129l1.90645,0.22676l0.66348,-0.37793l0.16797,-0.13437l0.75586,-1.77207l-0.95742,-1.66289zM96.67441,53.38047l-0.75586,0.07559l-0.20996,0.05879l-1.41094,1.31016l0.20156,1.92324l1.65449,0.98262l0.76426,-0.08399l0.20156,-0.05879l1.41094,-1.31016l-0.20156,-1.91484zM87.70488,55.06855l-0.21836,0.0168l-1.64609,1.00781l-0.17637,1.91484l1.42774,1.29336l0.75586,0.06719l0.20996,-0.0084l1.64609,-1.00781l0.18477,-1.91484l-1.42774,-1.30176zM78.87813,55.3709l-1.72168,0.85664l-0.36113,1.88965l1.31016,1.41934l0.73906,0.13437l0.21836,0.0084l1.73008,-0.85664l0.35274,-1.88965l-1.30176,-1.41094l-0.74746,-0.14277zM70.04297,55.76563l-0.20996,0.0252l-1.6209,1.04141l-0.12598,1.92324l1.45293,1.25137l0.75586,0.05879l0.21836,-0.03359l1.6125,-1.04141l0.13437,-1.91484l-1.45293,-1.25976zM61.56895,57.68047l-0.73906,0.17637l-0.19316,0.09238l-1.23457,1.47812l0.46191,1.87285l1.77207,0.75586l0.73906,-0.17637l0.19316,-0.09238l1.22617,-1.48652l-0.45351,-1.87285zM55.29531,62.77832l-1.91484,0.21836l-0.5459,0.5207l-0.12598,0.17637l-0.33594,1.88965l1.31016,1.40254l1.91484,-0.20996l0.5543,-0.5207l0.12597,-0.17637l0.33594,-1.88965zM51.37324,70.95l-1.45293,1.25137l-0.16797,0.73906l-0.0084,0.21836l0.78105,1.75527l1.88125,0.41992l1.46973,-1.25977l0.15957,-0.73906l0.0084,-0.20996l-0.78945,-1.75527zM106.33262,81.73359l-24.22949,23.37285l-12.06855,-12.3793l-4.61914,4.50156l16.54492,16.96484l28.85703,-27.82402z"></path></g></g></svg>