<svg width="237" height="57" viewBox="0 0 237 57" fill="none" xmlns="http://www.w3.org/2000/svg">
<path d="M87.1326 37.4379C86.5574 37.4379 86.1111 37.2792 85.7938 36.9618C85.4764 36.6445 85.3178 36.2081 85.3178 35.6528V18.2183C85.3178 17.6431 85.4864 17.1869 85.8235 16.8497C86.1806 16.4927 86.6467 16.3142 87.2219 16.3142C87.8169 16.3142 88.283 16.4927 88.6202 16.8497C88.9772 17.1869 89.1557 17.6431 89.1557 18.2183V34.2842H97.5159C98.706 34.2842 99.301 34.8098 99.301 35.861C99.301 36.9123 98.706 37.4379 97.5159 37.4379H87.1326ZM103.338 37.6164C102.802 37.6164 102.356 37.4676 101.999 37.1701C101.662 36.8528 101.493 36.4065 101.493 35.8313V24.3471C101.493 23.7719 101.662 23.3356 101.999 23.0381C102.356 22.7406 102.802 22.5918 103.338 22.5918C103.873 22.5918 104.32 22.7406 104.677 23.0381C105.034 23.3356 105.212 23.7719 105.212 24.3471V35.8313C105.212 36.4065 105.034 36.8528 104.677 37.1701C104.32 37.4676 103.873 37.6164 103.338 37.6164ZM103.338 19.9439C102.664 19.9439 102.128 19.7654 101.731 19.4084C101.335 19.0315 101.136 18.5456 101.136 17.9505C101.136 17.3555 101.335 16.8795 101.731 16.5225C102.128 16.1654 102.664 15.9869 103.338 15.9869C103.992 15.9869 104.518 16.1654 104.915 16.5225C105.331 16.8795 105.54 17.3555 105.54 17.9505C105.54 18.5456 105.341 19.0315 104.945 19.4084C104.548 19.7654 104.012 19.9439 103.338 19.9439ZM119.193 23.6629C119.351 23.3058 119.56 23.0381 119.818 22.8596C120.095 22.6811 120.393 22.5918 120.71 22.5918C121.166 22.5918 121.573 22.7505 121.93 23.0678C122.307 23.3653 122.495 23.7422 122.495 24.1984C122.495 24.4364 122.436 24.6744 122.317 24.9124L116.813 36.4263C116.634 36.8032 116.376 37.0908 116.039 37.2891C115.722 37.4875 115.365 37.5866 114.968 37.5866C114.591 37.5866 114.224 37.4875 113.867 37.2891C113.53 37.0908 113.272 36.8032 113.094 36.4263L107.56 24.9124C107.461 24.7141 107.411 24.486 107.411 24.2281C107.411 23.7719 107.6 23.3852 107.976 23.0678C108.373 22.7505 108.819 22.5918 109.315 22.5918C110.029 22.5918 110.555 22.9389 110.892 23.6331L115.057 32.8264L119.193 23.6629ZM126.552 37.6164C126.017 37.6164 125.571 37.4676 125.214 37.1701C124.876 36.8528 124.708 36.4065 124.708 35.8313V24.3471C124.708 23.7719 124.876 23.3356 125.214 23.0381C125.571 22.7406 126.017 22.5918 126.552 22.5918C127.088 22.5918 127.534 22.7406 127.891 23.0381C128.248 23.3356 128.427 23.7719 128.427 24.3471V35.8313C128.427 36.4065 128.248 36.8528 127.891 37.1701C127.534 37.4676 127.088 37.6164 126.552 37.6164ZM126.552 19.9439C125.878 19.9439 125.342 19.7654 124.946 19.4084C124.549 19.0315 124.351 18.5456 124.351 17.9505C124.351 17.3555 124.549 16.8795 124.946 16.5225C125.342 16.1654 125.878 15.9869 126.552 15.9869C127.207 15.9869 127.733 16.1654 128.129 16.5225C128.546 16.8795 128.754 17.3555 128.754 17.9505C128.754 18.5456 128.556 19.0315 128.159 19.4084C127.762 19.7654 127.227 19.9439 126.552 19.9439ZM140.711 22.5323C142.457 22.5323 143.756 23.0282 144.609 24.0199C145.462 25.0116 145.888 26.5091 145.888 28.5124V35.8313C145.888 36.3866 145.72 36.823 145.382 37.1403C145.065 37.4577 144.619 37.6164 144.044 37.6164C143.468 37.6164 143.012 37.4577 142.675 37.1403C142.338 36.823 142.169 36.3866 142.169 35.8313V28.7206C142.169 27.5901 141.951 26.7669 141.515 26.2513C141.098 25.7356 140.434 25.4777 139.521 25.4777C138.45 25.4777 137.587 25.8149 136.933 26.4893C136.298 27.1636 135.981 28.0661 135.981 29.1967V35.8313C135.981 36.3866 135.812 36.823 135.475 37.1403C135.138 37.4577 134.682 37.6164 134.106 37.6164C133.531 37.6164 133.075 37.4577 132.738 37.1403C132.421 36.823 132.262 36.3866 132.262 35.8313V24.3174C132.262 23.8017 132.43 23.3852 132.768 23.0678C133.105 22.7505 133.561 22.5918 134.136 22.5918C134.652 22.5918 135.068 22.7505 135.386 23.0678C135.723 23.3653 135.892 23.762 135.892 24.2579V25.0612C136.387 24.248 137.052 23.6232 137.885 23.1868C138.718 22.7505 139.66 22.5323 140.711 22.5323ZM161.983 22.5918C162.538 22.5918 162.984 22.7505 163.321 23.0678C163.659 23.3852 163.827 23.8116 163.827 24.3471V36.099C163.827 38.38 163.193 40.1056 161.923 41.2758C160.654 42.4461 158.779 43.0312 156.3 43.0312C154.138 43.0312 152.333 42.6246 150.885 41.8114C150.151 41.375 149.784 40.8494 149.784 40.2345C149.784 39.7982 149.884 39.4511 150.082 39.1932C150.3 38.9354 150.578 38.8064 150.915 38.8064C151.094 38.8064 151.312 38.8461 151.57 38.9254C151.827 39.0246 152.095 39.1337 152.373 39.2527C153.087 39.5502 153.722 39.7783 154.277 39.937C154.852 40.0957 155.507 40.175 156.241 40.175C158.839 40.175 160.138 38.9056 160.138 36.3668V34.4627C159.702 35.2759 159.067 35.9106 158.234 36.3668C157.401 36.8032 156.449 37.0213 155.378 37.0213C154.108 37.0213 152.978 36.7238 151.986 36.1288C151.014 35.5139 150.251 34.661 149.695 33.5702C149.14 32.4793 148.862 31.2198 148.862 29.7917C148.862 28.3636 149.13 27.1041 149.665 26.0132C150.221 24.9025 150.994 24.0496 151.986 23.4546C152.978 22.8397 154.108 22.5323 155.378 22.5323C156.449 22.5323 157.401 22.7604 158.234 23.2166C159.067 23.6529 159.702 24.2777 160.138 25.0909V24.3174C160.138 23.8017 160.307 23.3852 160.644 23.0678C160.981 22.7505 161.427 22.5918 161.983 22.5918ZM156.36 34.1354C157.55 34.1354 158.472 33.7487 159.126 32.9751C159.801 32.2016 160.138 31.1404 160.138 29.7917C160.138 28.4231 159.801 27.3521 159.126 26.5785C158.472 25.805 157.55 25.4182 156.36 25.4182C155.189 25.4182 154.267 25.805 153.593 26.5785C152.918 27.3521 152.581 28.4231 152.581 29.7917C152.581 31.1404 152.918 32.2016 153.593 32.9751C154.267 33.7487 155.189 34.1354 156.36 34.1354ZM174.879 37.5866C174.284 37.5866 173.808 37.418 173.451 37.0808C173.114 36.7238 172.945 36.2577 172.945 35.6825V19.6166H167.53C166.34 19.6166 165.745 19.091 165.745 18.0398C165.745 16.9886 166.34 16.463 167.53 16.463H182.198C183.388 16.463 183.983 16.9886 183.983 18.0398C183.983 19.091 183.388 19.6166 182.198 19.6166H176.783V35.6825C176.783 36.2577 176.605 36.7238 176.248 37.0808C175.91 37.418 175.454 37.5866 174.879 37.5866ZM191.723 22.5918C192.239 22.5521 192.645 22.6612 192.943 22.9191C193.24 23.1769 193.389 23.5637 193.389 24.0794C193.389 24.6149 193.26 25.0116 193.002 25.2694C192.745 25.5273 192.278 25.6959 191.604 25.7752L190.712 25.8645C189.541 25.9835 188.679 26.3802 188.123 27.0545C187.588 27.7289 187.32 28.5719 187.32 29.5834V35.8313C187.32 36.4065 187.141 36.8528 186.784 37.1701C186.427 37.4676 185.981 37.6164 185.445 37.6164C184.91 37.6164 184.464 37.4676 184.107 37.1701C183.769 36.8528 183.601 36.4065 183.601 35.8313V24.3174C183.601 23.762 183.769 23.3356 184.107 23.0381C184.464 22.7406 184.9 22.5918 185.416 22.5918C185.931 22.5918 186.348 22.7406 186.665 23.0381C186.983 23.3158 187.141 23.7224 187.141 24.2579V25.448C187.518 24.5752 188.074 23.9009 188.807 23.4248C189.561 22.9488 190.394 22.6811 191.307 22.6216L191.723 22.5918ZM206.474 22.5918C207.05 22.5918 207.506 22.7505 207.843 23.0678C208.18 23.3852 208.349 23.8116 208.349 24.3471V35.8908C208.349 36.4065 208.17 36.823 207.813 37.1403C207.476 37.4577 207.03 37.6164 206.474 37.6164C205.939 37.6164 205.512 37.4676 205.195 37.1701C204.878 36.8726 204.719 36.466 204.719 35.9503V35.2065C204.263 35.9999 203.648 36.6147 202.874 37.0511C202.101 37.4676 201.228 37.6759 200.256 37.6759C196.686 37.6759 194.901 35.6726 194.901 31.666V24.3471C194.901 23.8116 195.07 23.3852 195.407 23.0678C195.744 22.7505 196.19 22.5918 196.746 22.5918C197.321 22.5918 197.777 22.7505 198.114 23.0678C198.451 23.3852 198.62 23.8116 198.62 24.3471V31.6958C198.62 32.7272 198.828 33.4908 199.245 33.9867C199.661 34.4825 200.316 34.7305 201.208 34.7305C202.24 34.7305 203.063 34.3933 203.678 33.7189C204.312 33.0247 204.63 32.1123 204.63 30.9818V24.3471C204.63 23.8116 204.798 23.3852 205.135 23.0678C205.473 22.7505 205.919 22.5918 206.474 22.5918ZM217.485 37.6759C215.323 37.6759 213.578 37.2494 212.249 36.3966C211.614 36.0197 211.297 35.4842 211.297 34.79C211.297 34.3933 211.406 34.0759 211.624 33.8379C211.843 33.5801 212.11 33.4511 212.428 33.4511C212.765 33.4511 213.231 33.6098 213.826 33.9272C214.461 34.2247 215.036 34.4528 215.552 34.6115C216.087 34.7701 216.761 34.8495 217.575 34.8495C218.408 34.8495 219.052 34.7106 219.509 34.433C219.985 34.1553 220.223 33.7685 220.223 33.2726C220.223 32.9355 220.123 32.6677 219.925 32.4693C219.747 32.271 219.409 32.0925 218.914 31.9338C218.438 31.7553 217.704 31.557 216.712 31.3388C214.947 30.9818 213.677 30.476 212.904 29.8214C212.15 29.1669 211.773 28.2644 211.773 27.114C211.773 26.2413 212.031 25.4579 212.547 24.7637C213.062 24.0496 213.766 23.5042 214.659 23.1273C215.571 22.7306 216.603 22.5323 217.753 22.5323C218.586 22.5323 219.39 22.6414 220.163 22.8596C220.937 23.0579 221.631 23.3554 222.246 23.7521C222.88 24.1488 223.198 24.6744 223.198 25.329C223.198 25.7256 223.089 26.0628 222.87 26.3405C222.652 26.5984 222.385 26.7273 222.067 26.7273C221.849 26.7273 221.631 26.6876 221.413 26.6083C221.214 26.5091 220.956 26.3703 220.639 26.1917C220.064 25.8942 219.568 25.6761 219.152 25.5372C218.735 25.3785 218.219 25.2992 217.604 25.2992C216.871 25.2992 216.285 25.448 215.849 25.7455C215.433 26.043 215.224 26.4496 215.224 26.9653C215.224 27.4612 215.443 27.838 215.879 28.0959C216.315 28.3537 217.158 28.6115 218.408 28.8694C219.737 29.1471 220.778 29.4644 221.532 29.8214C222.285 30.1785 222.821 30.6247 223.138 31.1603C223.475 31.6958 223.644 32.3801 223.644 33.2131C223.644 34.5619 223.079 35.6429 221.948 36.4561C220.837 37.2693 219.35 37.6759 217.485 37.6759ZM234.071 34.8495C235.063 34.909 235.559 35.3553 235.559 36.1883C235.559 36.6643 235.36 37.0313 234.964 37.2891C234.587 37.5271 234.041 37.6263 233.327 37.5866L232.524 37.5271C229.192 37.2891 227.526 35.504 227.526 32.1718V25.686H226.038C225.503 25.686 225.086 25.567 224.789 25.329C224.511 25.0909 224.372 24.7438 224.372 24.2876C224.372 23.8315 224.511 23.4843 224.789 23.2463C225.086 23.0083 225.503 22.8893 226.038 22.8893H227.526V20.1522C227.526 19.6166 227.694 19.1902 228.031 18.8728C228.369 18.5555 228.825 18.3968 229.4 18.3968C229.955 18.3968 230.402 18.5555 230.739 18.8728C231.076 19.1902 231.245 19.6166 231.245 20.1522V22.8893H233.774C234.309 22.8893 234.716 23.0083 234.993 23.2463C235.291 23.4843 235.44 23.8315 235.44 24.2876C235.44 24.7438 235.291 25.0909 234.993 25.329C234.716 25.567 234.309 25.686 233.774 25.686H231.245V32.4396C231.245 33.9073 231.919 34.6908 233.268 34.79L234.071 34.8495Z" fill="white"/>
<rect width="55.7843" height="56.9" fill="white"/>
<path fill-rule="evenodd" clip-rule="evenodd" d="M49.0903 5.57849H33.4707V17.851H24.5449V26.7765L33.4707 26.7765H49.0903V5.57849Z" fill="#DA251D"/>
<path fill-rule="evenodd" clip-rule="evenodd" d="M6.69441 30.1235H22.314V42.3961H31.2397V51.3216H18.9672V51.3216H6.69441V30.1235Z" fill="#1F1A17"/>
<path fill-rule="evenodd" clip-rule="evenodd" d="M6.69441 26.7766H22.314V14.5041H31.2397V5.57858L22.314 5.57857H6.69441V26.7766Z" fill="#0093DD"/>
<path fill-rule="evenodd" clip-rule="evenodd" d="M49.0903 51.3218H33.4707V39.0492H24.5449V30.1237H36.8175V30.1237H49.0903V51.3218Z" fill="#E77817"/>
</svg>
