<svg width="16" height="18" viewBox="0 0 16 18" fill="none" xmlns="http://www.w3.org/2000/svg">
<path fill-rule="evenodd" clip-rule="evenodd" d="M8.00001 0C7.22376 0 5.92663 0.298125 4.70601 0.63C3.45726 0.9675 2.19838 1.36687 1.45813 1.60875C1.14863 1.71096 0.874246 1.8984 0.666488 2.14954C0.45873 2.40068 0.326029 2.70533 0.283631 3.0285C-0.386869 8.06513 1.16901 11.7979 3.05676 14.2673C3.85729 15.3236 4.81179 16.2538 5.88838 17.0269C6.32263 17.334 6.72538 17.5691 7.06738 17.73C7.38238 17.8785 7.72101 18 8.00001 18C8.27901 18 8.61651 17.8785 8.93263 17.73C9.34493 17.5296 9.73936 17.2944 10.1116 17.0269C11.1882 16.2538 12.1428 15.3236 12.9433 14.2673C14.831 11.7979 16.3869 8.06513 15.7164 3.0285C15.6741 2.70518 15.5414 2.40035 15.3336 2.14901C15.1259 1.89768 14.8515 1.71003 14.5419 1.60763C13.4673 1.25529 12.3843 0.928945 11.294 0.628875C10.0734 0.29925 8.77626 0 8.00001 0ZM8.00001 5.625C8.39852 5.62441 8.78439 5.76487 9.08927 6.02152C9.39415 6.27817 9.59836 6.63443 9.66573 7.02721C9.7331 7.42 9.65929 7.82395 9.45737 8.16753C9.25545 8.5111 8.93844 8.77213 8.56251 8.90438L8.99563 11.1431C9.01139 11.2246 9.00895 11.3085 8.98848 11.3888C8.96801 11.4692 8.93002 11.5441 8.87723 11.608C8.82444 11.672 8.75816 11.7235 8.68314 11.7588C8.60811 11.7942 8.52619 11.8125 8.44326 11.8125H7.55676C7.47391 11.8124 7.39213 11.7939 7.31724 11.7585C7.24235 11.7231 7.17621 11.6715 7.12355 11.6076C7.07088 11.5436 7.033 11.4688 7.01259 11.3886C6.99218 11.3083 6.98977 11.2245 7.00551 11.1431L7.43751 8.90438C7.06157 8.77213 6.74457 8.5111 6.54264 8.16753C6.34072 7.82395 6.26691 7.42 6.33428 7.02721C6.40165 6.63443 6.60586 6.27817 6.91074 6.02152C7.21562 5.76487 7.60149 5.62441 8.00001 5.625Z" fill="#333333"/>
</svg>
