<svg width="18" height="19" viewBox="0 0 18 19" fill="none" xmlns="http://www.w3.org/2000/svg">
<path d="M9.00013 0.981323C9.79694 0.981219 10.565 1.25676 11.1535 1.75383C11.7421 2.2509 12.1085 2.93361 12.181 3.66789H17.1293C17.35 3.66795 17.5624 3.74553 17.7236 3.88494C17.8849 4.02435 17.9829 4.2152 17.998 4.41893C18.013 4.62266 17.9439 4.82407 17.8047 4.98248C17.6654 5.14089 17.4664 5.24447 17.2477 5.27231L17.1293 5.27983H16.4522L14.9809 17.0792C14.9153 17.603 14.644 18.0862 14.2186 18.4369C13.7931 18.7876 13.2431 18.9814 12.6733 18.9813H5.32692C4.75712 18.9814 4.20717 18.7876 3.7817 18.4369C3.35623 18.0862 3.08493 17.603 3.0194 17.0792L1.54686 5.27983H0.870981C0.660508 5.27982 0.457158 5.20929 0.298537 5.08127C0.139915 4.95326 0.0367534 4.77643 0.00812912 4.58347L0 4.47386C8.87575e-06 4.2791 0.0762313 4.09093 0.214571 3.94414C0.352911 3.79736 0.54401 3.7019 0.752527 3.67541L0.870981 3.66789H5.81931C5.89175 2.93361 6.25821 2.2509 6.84673 1.75383C7.43525 1.25676 8.20332 0.981219 9.00013 0.981323ZM7.25817 7.69774C6.97365 7.69774 6.73558 7.86431 6.68681 8.08353L6.67752 8.16843V14.7505L6.68681 14.8343C6.73558 15.0536 6.97365 15.2201 7.25817 15.2201C7.54269 15.2201 7.78076 15.0536 7.82953 14.8343L7.83883 14.7494V8.1695L7.82953 8.08353C7.78076 7.86538 7.54269 7.69774 7.25817 7.69774ZM10.7421 7.69774C10.4576 7.69774 10.2195 7.86431 10.1707 8.08353L10.1614 8.16843V14.7505L10.1707 14.8343C10.2195 15.0536 10.4576 15.2201 10.7421 15.2201C11.0266 15.2201 11.2647 15.0536 11.3135 14.8343L11.3227 14.7494V8.1695L11.3135 8.08353C11.2647 7.86538 11.0266 7.69882 10.7421 7.69882V7.69774ZM9.00013 2.59326C8.29754 2.59326 7.71108 3.05535 7.57753 3.66789H10.4227C10.288 3.05535 9.70272 2.59326 9.00013 2.59326Z" fill="#FF3C3C"/>
</svg>
