<svg xmlns="http://www.w3.org/2000/svg" x="0px" y="0px"
width="35" height="35"
viewBox="0 0 172 172"
style=" fill:#000000;"><g fill="none" fill-rule="nonzero" stroke="none" stroke-width="1" stroke-linecap="butt" stroke-linejoin="miter" stroke-miterlimit="10" stroke-dasharray="" stroke-dashoffset="0" font-family="none" font-weight="none" font-size="none" text-anchor="none" style="mix-blend-mode: normal"><path d="M0,172v-172h172v172z" fill="none"></path><g fill="#ffffff"><path d="M87.13248,7.39063c-7.40874,-0.30848 -14.62262,2.41911 -19.9739,7.55217c-5.35128,5.13306 -8.37667,12.22721 -8.37673,19.64236c0.01694,15.02515 12.193,27.20121 27.21815,27.21816c14.80788,-0.00513 26.89488,-11.84729 27.203,-26.65196c0.30813,-14.80467 -11.27569,-27.13948 -26.07053,-27.76073zM86.06889,14.78256c1.27124,0.03726 2.2825,1.07846 2.28267,2.35025v1.95264c4.47587,1.09043 7.62777,5.09735 7.63339,9.70413c0,1.29873 -1.05283,2.35156 -2.35156,2.35156c-1.29873,0 -2.35156,-1.05283 -2.35156,-2.35156c-0.00411,-2.8792 -2.31189,-5.22549 -5.19063,-5.27724c-0.03057,0 -0.06063,0.00525 -0.0912,0.00525c-0.03057,0 -0.06063,-0.00391 -0.0912,-0.00525c-2.87796,0.07668 -5.16398,2.44479 -5.13911,5.32366c0.02487,2.87887 2.35145,5.20714 5.23031,5.23409c5.05464,0.00157 9.31061,3.78059 9.91015,8.79954c0.59954,5.01896 -2.64654,9.69413 -7.55859,10.88626v2.34566c0,1.29873 -1.05283,2.35156 -2.35156,2.35156c-1.29873,0 -2.35156,-1.05283 -2.35156,-2.35156v-2.345c-4.47523,-1.09014 -7.62699,-5.09608 -7.63339,-9.70216c0,-1.29873 1.05283,-2.35156 2.35156,-2.35156c1.29873,0 2.35156,1.05283 2.35156,2.35156c-0.00018,2.13623 1.28651,4.06222 3.26007,4.87986c1.97356,0.81764 4.24533,0.36592 5.75597,-1.14453c1.51064,-1.51045 1.96264,-3.78216 1.14525,-5.75582c-0.8174,-1.97366 -2.74322,-3.26059 -4.87945,-3.26068c-5.05478,-0.00162 -9.31085,-3.78077 -9.91038,-8.79988c-0.59954,-5.0191 2.64664,-9.6944 7.55882,-10.88659v-1.95395c0.00008,-0.63557 0.25743,-1.24404 0.7134,-1.68679c0.45598,-0.44275 1.07176,-0.68208 1.70705,-0.66346zM43.59904,56.77344l-15.31599,15.45313h100.11791l15.31599,-15.45312h-34.92437c-1.99384,2.07466 -4.2488,3.88145 -6.70825,5.375h1.72037c1.29873,0 2.35156,1.05283 2.35156,2.35156c0,1.29873 -1.05283,2.35156 -2.35156,2.35156h-37.625c-1.29873,0 -2.35156,-1.05283 -2.35156,-2.35156c0,-1.29873 1.05283,-2.35156 2.35156,-2.35156h3.73599c-2.45945,-1.49355 -4.71441,-3.30034 -6.70825,-5.375zM147.14063,60.23582l-15.45312,15.31534v85.75592l15.45313,-15.316zM24.85938,76.92969v87.67969h102.125v-87.67969z"></path></g></g></svg>