<svg width="18" height="19" viewBox="0 0 18 19" fill="none" xmlns="http://www.w3.org/2000/svg">
<path d="M1.09004 12.974L0.026612 17.5731C-0.0100727 17.7412 -0.00881513 17.9154 0.0302928 18.083C0.0694007 18.2506 0.145371 18.4073 0.252654 18.5417C0.359937 18.676 0.495823 18.7847 0.650384 18.8597C0.804945 18.9348 0.974278 18.9742 1.14601 18.9753C1.22603 18.9834 1.30666 18.9834 1.38668 18.9753L6.0042 17.9096L14.8698 9.05923L9.9221 4.11243L1.09004 12.974Z" fill="#5B5B5B"/>
<path d="M17.6571 4.62838L14.3549 1.31929C14.1378 1.10284 13.844 0.981323 13.5377 0.981323C13.2315 0.981323 12.9377 1.10284 12.7206 1.31929L10.8848 3.15892L15.8269 8.11133L17.6627 6.2717C17.7702 6.1635 17.8552 6.03513 17.9131 5.89394C17.971 5.75275 18.0005 5.60151 18 5.44888C17.9995 5.29624 17.9689 5.14521 17.9101 5.00442C17.8513 4.86362 17.7653 4.73584 17.6571 4.62838Z" fill="#5B5B5B"/>
</svg>
