<svg width="14" height="18" viewBox="0 0 14 18" fill="none" xmlns="http://www.w3.org/2000/svg">
<path d="M5.46875 1.35H8.53125C8.7053 1.35 8.87222 1.42112 8.99529 1.5477C9.11836 1.67429 9.1875 1.84598 9.1875 2.025C9.1875 2.20402 9.11836 2.37571 8.99529 2.5023C8.87222 2.62888 8.7053 2.7 8.53125 2.7H5.46875C5.2947 2.7 5.12778 2.62888 5.00471 2.5023C4.88164 2.37571 4.8125 2.20402 4.8125 2.025C4.8125 1.84598 4.88164 1.67429 5.00471 1.5477C5.12778 1.42112 5.2947 1.35 5.46875 1.35ZM8.53125 0H5.46875C4.98449 1.50485e-05 4.51723 0.183606 4.15629 0.515674C3.79535 0.847743 3.56606 1.30499 3.51225 1.8H1.96875C1.44661 1.8 0.945846 2.01335 0.576634 2.39311C0.207421 2.77287 0 3.28794 0 3.825V15.975C0 16.5121 0.207421 17.0271 0.576634 17.4069C0.945846 17.7867 1.44661 18 1.96875 18H12.0312C12.2898 18 12.5458 17.9476 12.7847 17.8459C13.0235 17.7441 13.2406 17.5949 13.4234 17.4069C13.6062 17.2189 13.7512 16.9956 13.8501 16.7499C13.9491 16.5042 14 16.2409 14 15.975V3.825C14 3.55907 13.9491 3.29575 13.8501 3.05007C13.7512 2.80438 13.6062 2.58115 13.4234 2.39311C13.2406 2.20507 13.0235 2.05591 12.7847 1.95414C12.5458 1.85238 12.2898 1.8 12.0312 1.8H10.4878C10.4339 1.30499 10.2047 0.847743 9.84371 0.515674C9.48277 0.183606 9.01551 1.50485e-05 8.53125 0V0ZM10.9375 10.575V13.725C10.9375 13.904 10.8684 14.0757 10.7453 14.2023C10.6222 14.3289 10.4553 14.4 10.2812 14.4C10.1072 14.4 9.94028 14.3289 9.81721 14.2023C9.69414 14.0757 9.625 13.904 9.625 13.725V10.575C9.625 10.396 9.69414 10.2243 9.81721 10.0977C9.94028 9.97112 10.1072 9.9 10.2812 9.9C10.4553 9.9 10.6222 9.97112 10.7453 10.0977C10.8684 10.2243 10.9375 10.396 10.9375 10.575ZM7 8.1C7.17405 8.1 7.34097 8.17112 7.46404 8.2977C7.58711 8.42429 7.65625 8.59598 7.65625 8.775V13.725C7.65625 13.904 7.58711 14.0757 7.46404 14.2023C7.34097 14.3289 7.17405 14.4 7 14.4C6.82595 14.4 6.65903 14.3289 6.53596 14.2023C6.41289 14.0757 6.34375 13.904 6.34375 13.725V8.775C6.34375 8.59598 6.41289 8.42429 6.53596 8.2977C6.65903 8.17112 6.82595 8.1 7 8.1ZM4.375 6.975V13.725C4.375 13.904 4.30586 14.0757 4.18279 14.2023C4.05972 14.3289 3.8928 14.4 3.71875 14.4C3.5447 14.4 3.37778 14.3289 3.25471 14.2023C3.13164 14.0757 3.0625 13.904 3.0625 13.725V6.975C3.0625 6.79598 3.13164 6.62429 3.25471 6.4977C3.37778 6.37112 3.5447 6.3 3.71875 6.3C3.8928 6.3 4.05972 6.37112 4.18279 6.4977C4.30586 6.62429 4.375 6.79598 4.375 6.975Z" fill="#717171"/>
</svg>
