<svg xmlns="http://www.w3.org/2000/svg" x="0px" y="0px"
width="35" height="35"
viewBox="0 0 172 172"
style=" fill:#000000;"><g fill="none" fill-rule="nonzero" stroke="none" stroke-width="1" stroke-linecap="butt" stroke-linejoin="miter" stroke-miterlimit="10" stroke-dasharray="" stroke-dashoffset="0" font-family="none" font-weight="none" font-size="none" text-anchor="none" style="mix-blend-mode: normal"><path d="M0,172v-172h172v172z" fill="none"></path><g fill="#ffffff"><path d="M89.01,11.395c-16.13844,0.36281 -26.35094,6.89344 -30.745,16.985c-4.17906,9.60781 -3.30562,21.715 -0.3225,34.2925c-1.59906,1.88125 -2.91594,4.52844 -2.58,8.4925v0.215c0.57781,4.1925 1.84094,7.14875 3.44,9.245c0.77938,1.02125 1.935,1.04813 2.9025,1.6125c0.5375,3.62813 1.42438,7.29656 2.795,10.32c0.77938,1.72 1.58563,3.21156 2.4725,4.515c0.41656,0.60469 1.04813,0.99438 1.505,1.505v12.3625c-1.10187,2.64719 -3.72219,4.78375 -7.8475,6.88c-4.3,2.17688 -9.91687,4.17906 -15.5875,6.665c-5.67062,2.48594 -11.40844,5.56313 -16.0175,10.32c-4.60906,4.75688 -7.91469,11.22031 -8.385,19.78l-0.215,3.655h138.03l-0.215,-3.655c-0.47031,-8.55969 -3.77594,-15.02312 -8.385,-19.78c-4.60906,-4.75687 -10.4275,-7.83406 -16.125,-10.32c-5.6975,-2.48594 -11.34125,-4.47469 -15.695,-6.665c-4.17906,-2.09625 -6.78594,-4.20594 -7.955,-6.88v-12.47c0.41656,-0.48375 1.00781,-0.81969 1.3975,-1.3975c0.88688,-1.30344 1.80063,-2.795 2.58,-4.515c1.35719,-2.99656 2.2575,-6.62469 2.795,-10.2125c1.10188,-0.56437 2.365,-0.60469 3.225,-1.72c1.65281,-2.16344 2.62031,-5.24062 3.01,-9.46c0.30906,-3.64156 -0.73906,-6.28875 -2.365,-8.2775c1.78719,-5.50937 3.91031,-14.32437 3.225,-23.3275c-0.37625,-4.945 -1.67969,-9.87656 -4.6225,-13.975c-2.66062,-3.70875 -6.96062,-6.24844 -12.3625,-7.4175c-3.64156,-4.86437 -10.25281,-6.7725 -17.845,-6.7725zM89.1175,18.275c0.04031,0 0.06719,0 0.1075,0c6.86656,0.02688 11.26063,1.96188 12.685,4.4075l0.86,1.505l1.72,0.215c4.73,0.65844 7.32344,2.48594 9.245,5.16c1.92156,2.67406 3.02344,6.40969 3.3325,10.535c0.63156,8.26406 -1.76031,17.9525 -3.3325,22.36l-1.075,2.9025l2.6875,1.3975c-0.02687,0.09406 1.10188,1.23625 0.9675,3.7625c0,0.05375 0,0.05375 0,0.1075c-0.3225,3.23844 -1.15562,5.06594 -1.72,5.805c-0.57781,0.7525 -0.87344,0.645 -0.7525,0.645h-3.1175l-0.3225,3.1175c-0.29562,3.09063 -1.41094,6.62469 -2.6875,9.46c-0.645,1.42438 -1.23625,2.6875 -1.8275,3.5475c-0.59125,0.86 -1.29,1.35719 -0.9675,1.1825l-1.72,0.9675v15.91c0,0.1075 0,0.215 0,0.3225v0.215c0,-0.04031 -0.61812,1.47813 -3.1175,2.795c-2.49937,1.31688 -6.35594,2.365 -10.6425,2.365c-4.32687,0 -8.15656,-0.98094 -10.6425,-2.2575c-2.48594,-1.27656 -3.1175,-2.60687 -3.1175,-2.9025c0.01344,-0.52406 -0.1075,-1.03469 -0.3225,-1.505v-14.9425l-1.72,-0.9675c0.3225,0.17469 -0.37625,-0.3225 -0.9675,-1.1825c-0.59125,-0.86 -1.29,-2.12312 -1.935,-3.5475c-1.27656,-2.83531 -2.39187,-6.36937 -2.6875,-9.46l-0.215,-3.1175h-2.9025c-0.12094,-0.05375 -0.44344,-0.22844 -0.7525,-0.645c-0.60469,-0.79281 -1.46469,-2.64719 -1.935,-5.805c0,-0.06719 0,-0.04031 0,-0.1075c-0.01344,-0.05375 0.01344,-0.05375 0,-0.1075c-0.05375,-2.60687 1.55875,-4.05812 1.29,-3.87l1.935,-1.3975l-0.5375,-2.365c-3.17125,-12.53719 -3.66844,-23.89187 -0.3225,-31.605c3.34594,-7.68625 10.11844,-12.55062 24.51,-12.9zM71.9175,118.25c1.10188,1.02125 2.365,1.86781 3.7625,2.58c3.70875,1.90813 8.45219,3.01 13.76,3.01c5.34813,0 10.18563,-1.16906 13.8675,-3.1175c1.29,-0.68531 2.51281,-1.45125 3.5475,-2.365c2.2575,2.365 5.14656,4.17906 8.17,5.6975c4.98531,2.49938 10.66938,4.43438 16.0175,6.7725c5.34813,2.33813 10.25281,4.98531 13.8675,8.7075c2.87563,2.96969 4.64938,6.92031 5.59,11.825h-122.12c0.94063,-4.90469 2.71438,-8.85531 5.59,-11.825c3.60125,-3.72219 8.53281,-6.36937 13.8675,-8.7075c5.33469,-2.33812 10.965,-4.25969 15.91,-6.7725c3.05031,-1.54531 5.95281,-3.38625 8.17,-5.805z"></path></g></g></svg>