<svg width="21" height="17" viewBox="0 0 21 17" fill="none" xmlns="http://www.w3.org/2000/svg">
<path fill-rule="evenodd" clip-rule="evenodd" d="M0 1.5C0 0.671574 0.67157 0 1.5 0H19.5C20.3284 0 21 0.671574 21 1.5C21 2.32843 20.3284 3 19.5 3H1.5C0.67157 3 0 2.32843 0 1.5ZM0 8.5C0 7.67157 0.67157 7 1.5 7H19.5C20.3284 7 21 7.67157 21 8.5C21 9.32843 20.3284 10 19.5 10H1.5C0.67157 10 0 9.32843 0 8.5ZM1.5 14C0.67157 14 0 14.6716 0 15.5C0 16.3284 0.67157 17 1.5 17H19.5C20.3284 17 21 16.3284 21 15.5C21 14.6716 20.3284 14 19.5 14H1.5Z" fill="#505050"/>
</svg>
