<svg width="271" height="171" viewBox="0 0 271 171" fill="none" xmlns="http://www.w3.org/2000/svg">
<path d="M0.00012207 82.6965H49.7671C48.7634 78.3472 44.888 78.0962 43.0757 78.5144C42.4066 75.8379 38.8936 74.3323 37.2208 73.9141C37.2208 72.9103 35.548 70.7078 34.7115 69.732C27.6856 64.3789 23.6987 71.1261 22.5835 75.1688C17.2304 72.4923 11.4312 76.8416 9.20074 79.3509C3.84765 77.678 0.83654 80.8843 0.00012207 82.6965Z" fill="#E77817" fill-opacity="0.22"/>
<path d="M110.826 43.3848H61.0586C62.0623 39.0354 65.9377 38.7844 67.75 39.2026C68.4191 36.5261 71.932 35.0205 73.6049 34.6023C73.6049 33.5985 75.2777 31.396 76.1141 30.4203C83.1401 25.0672 87.127 31.8144 88.2422 35.8571C93.5953 33.1805 99.3945 37.5299 101.625 40.0391C106.978 38.3662 109.989 41.5725 110.826 43.3848Z" fill="#E77817" fill-opacity="0.22"/>
<path d="M184.012 10.8735H219.979C219.253 7.70934 216.452 7.52677 215.143 7.831C214.659 5.88384 212.12 4.78857 210.911 4.48432C210.911 3.75407 209.703 2.15177 209.098 1.44191C204.02 -2.45241 201.139 2.45609 200.333 5.39714C196.465 3.44998 192.274 6.61407 190.662 8.43951C186.793 7.22253 184.617 9.55507 184.012 10.8735Z" fill="#E77817" fill-opacity="0.22"/>
<rect x="104.553" y="118.021" width="23.4591" height="52.1999" fill="#F8D8BC"/>
<rect x="140.3" y="99.9883" width="23.4591" height="70.2326" fill="#F8D8BC"/>
<rect x="176.047" y="88.5994" width="23.4591" height="81.6217" fill="#F8D8BC"/>
<rect x="211.794" y="67.7192" width="23.4591" height="102.502" fill="#F8D8BC"/>
<rect x="247.542" y="46.8394" width="23.4591" height="123.382" fill="#F8D8BC"/>
<rect x="107.898" y="69.803" width="69.9877" height="12.5042" rx="2" transform="rotate(-27.3948 107.898 69.803)" fill="#B4D7E6"/>
<rect x="183.389" y="50.5239" width="55.3936" height="12.5042" rx="2" transform="rotate(-27.3948 183.389 50.5239)" fill="#B4D7E6"/>
<path d="M194.018 52.3128C194.528 51.3278 194.14 50.1156 193.152 49.6112L171.821 38.723C170.844 38.2243 169.648 38.6056 169.139 39.5777L165.273 46.9726C164.76 47.954 165.142 49.1654 166.125 49.6749L187.415 60.7079C188.395 61.2161 189.602 60.8331 190.111 59.8524L194.018 52.3128Z" fill="#B4D7E6"/>
<path d="M248.908 20.0516C250.406 20.0518 251.372 21.6384 250.685 22.9695L241.126 41.4755C240.409 42.862 238.452 42.9307 237.64 41.5978L226.371 23.089C225.559 21.7561 226.518 20.0487 228.079 20.0489L248.908 20.0516Z" fill="#B4D7E6"/>
<path d="M161.604 63.5679L173.307 81.1219H195.172L205.951 64.7997C202.255 68.2489 195.583 67.2635 192.709 66.3396C181.93 61.7201 180.39 65.7236 175.154 67.2635C170.966 68.4953 164.376 65.313 161.604 63.5679Z" fill="#0093DD"/>
<path d="M209.647 170.211C257.998 156.353 198.56 89.2164 194.865 87.9846C191.374 86.0341 181.992 83.3035 172.383 87.9846C162.775 92.6656 152.16 112.519 148.054 121.861C131.793 157.092 145.59 168.774 154.521 170.211H209.647Z" fill="#0093DD"/>
<rect x="171.151" y="80.5935" width="25.8691" height="7.39117" rx="3.69559" fill="#007CBA"/>
<path d="M172.61 124.954C172.61 123.849 173.505 122.954 174.61 122.954H175.793C176.897 122.954 177.793 123.849 177.793 124.954V146.031C177.793 147.136 176.897 148.031 175.793 148.031H174.61C173.505 148.031 172.61 147.136 172.61 146.031V124.954Z" fill="#007CBA"/>
<path d="M170.12 132.966C169.016 132.966 168.12 132.071 168.12 130.966V129.732C168.12 128.627 169.016 127.732 170.12 127.732H193.722C194.827 127.732 195.722 128.627 195.722 129.732V130.966C195.722 132.071 194.827 132.966 193.722 132.966H170.12Z" fill="#007CBA"/>
<path d="M170.12 142.705C169.016 142.705 168.12 141.81 168.12 140.705V139.47C168.12 138.366 169.016 137.47 170.12 137.47H193.722C194.827 137.47 195.722 138.366 195.722 139.47V140.705C195.722 141.81 194.827 142.705 193.722 142.705H170.12Z" fill="#007CBA"/>
<path d="M186.079 124.954C186.079 123.849 186.975 122.954 188.079 122.954H189.262C190.367 122.954 191.262 123.849 191.262 124.954V146.031C191.262 147.136 190.367 148.031 189.262 148.031H188.079C186.975 148.031 186.079 147.136 186.079 146.031V124.954Z" fill="#007CBA"/>
<path d="M174.281 127.291C173.739 126.338 174.065 125.127 175.012 124.574L176.049 123.97C177.009 123.41 178.241 123.74 178.793 124.705L189.601 143.612C190.137 144.55 189.831 145.745 188.91 146.31L187.842 146.965C186.878 147.556 185.616 147.232 185.058 146.249L174.281 127.291Z" fill="#007CBA"/>
<rect x="20.0737" y="158.083" width="61.0586" height="11.7099" rx="5.85494" fill="#E77817"/>
<rect x="25.0923" y="146.374" width="61.0586" height="11.7099" rx="5.85494" fill="#C46614"/>
<rect x="19.2373" y="134.664" width="61.0586" height="11.7099" rx="5.85494" fill="#E77817"/>
<rect x="19.2373" y="111.244" width="61.0586" height="11.7099" rx="5.85494" fill="#E77817"/>
<rect x="21.7466" y="122.954" width="61.0586" height="11.7099" rx="5.85494" fill="#C46614"/>
<rect x="21.7466" y="99.5339" width="61.0586" height="11.7099" rx="5.85494" fill="#C46614"/>
<circle cx="85.7329" cy="140.1" r="30.5293" fill="#E9974F"/>
<circle cx="85.733" cy="140.1" r="22.1651" fill="white" fill-opacity="0.44"/>
<path d="M77.5506 131.645C77.5506 130.54 78.446 129.645 79.5506 129.645H80.1052C81.2098 129.645 82.1052 130.54 82.1052 131.645V149.379C82.1052 150.483 81.2098 151.379 80.1052 151.379H79.5506C78.446 151.379 77.5506 150.483 77.5506 149.379V131.645Z" fill="#E9974F"/>
<path d="M75.605 138.323C74.5004 138.323 73.605 137.427 73.605 136.323V135.786C73.605 134.681 74.5004 133.786 75.605 133.786H95.8611C96.9657 133.786 97.8611 134.681 97.8611 135.786V136.323C97.8611 137.427 96.9657 138.323 95.8611 138.323H75.605Z" fill="#E9974F"/>
<path d="M75.605 146.763C74.5004 146.763 73.605 145.868 73.605 144.763V144.226C73.605 143.122 74.5004 142.226 75.605 142.226H95.8611C96.9657 142.226 97.8611 143.122 97.8611 144.226V144.763C97.8611 145.868 96.9657 146.763 95.8611 146.763H75.605Z" fill="#E9974F"/>
<path d="M89.3874 131.645C89.3874 130.54 90.2828 129.645 91.3874 129.645H91.942C93.0466 129.645 93.942 130.54 93.942 131.645V149.379C93.942 150.483 93.0466 151.379 91.942 151.379H91.3874C90.2828 151.379 89.3874 150.483 89.3874 149.379V131.645Z" fill="#E9974F"/>
<path d="M79.1594 133.648C78.6074 132.69 78.9369 131.466 79.8951 130.915L80.3762 130.639C81.3314 130.089 82.551 130.416 83.1036 131.369L92.3434 147.31C92.89 148.253 92.5809 149.46 91.6483 150.024L91.1352 150.335C90.1759 150.915 88.9271 150.593 88.3672 149.622L79.1594 133.648Z" fill="#E9974F"/>
</svg>
