<svg width="15" height="5" viewBox="0 0 15 5" fill="none" xmlns="http://www.w3.org/2000/svg">
<path fill-rule="evenodd" clip-rule="evenodd" d="M2.125 0.916992C3.02246 0.916992 3.75 1.64453 3.75 2.54199C3.75 3.43945 3.02246 4.16699 2.125 4.16699C1.22754 4.16699 0.5 3.43945 0.5 2.54199C0.5 1.64453 1.22754 0.916992 2.125 0.916992ZM7.54199 0.916992C8.43946 0.916992 9.16699 1.64453 9.16699 2.54199C9.16699 3.43945 8.43946 4.16699 7.54199 4.16699C6.64453 4.16699 5.91699 3.43945 5.91699 2.54199C5.91699 1.64453 6.64453 0.916992 7.54199 0.916992ZM14.583 2.54199C14.583 1.64453 13.8555 0.916992 12.958 0.916992C12.0605 0.916992 11.333 1.64453 11.333 2.54199C11.333 3.43945 12.0605 4.16699 12.958 4.16699C13.8555 4.16699 14.583 3.43945 14.583 2.54199Z" fill="#292A2E"/>
</svg>
