<svg xmlns="http://www.w3.org/2000/svg" x="0px" y="0px"
width="35" height="35"
viewBox="0 0 172 172"
style=" fill:#000000;"><g fill="none" fill-rule="nonzero" stroke="none" stroke-width="1" stroke-linecap="butt" stroke-linejoin="miter" stroke-miterlimit="10" stroke-dasharray="" stroke-dashoffset="0" font-family="none" font-weight="none" font-size="none" text-anchor="none" style="mix-blend-mode: normal"><path d="M0,172v-172h172v172z" fill="none"></path><g fill="#ffffff"><path d="M85.93953,10.32c-0.53623,0.0082 -1.06311,0.14165 -1.5386,0.38969l-72.24,37.84c-1.13334,0.5951 -1.84256,1.77024 -1.84094,3.05031v10.32c0.00019,1.89978 1.54022,3.43981 3.44,3.44h10.29312v61.92h-6.85312c-1.89978,0.00019 -3.43981,1.54022 -3.44,3.44v6.88h-3.44c-1.89978,0.00019 -3.43981,1.54022 -3.44,3.44v10.32c0.00019,1.89978 1.54022,3.43981 3.44,3.44h72.24v-6.88h-68.8v-3.44h3.44c1.89978,-0.00019 3.43981,-1.54022 3.44,-3.44v-6.88h6.46344c0.13819,0.01731 0.27729,0.02629 0.41656,0.02687h13.76c0.13254,-0.00137 0.26489,-0.01035 0.3964,-0.02687h19.82703c0.13819,0.01731 0.2773,0.02629 0.41656,0.02687h13.76c0.13254,-0.00137 0.26489,-0.01035 0.3964,-0.02687h6.4836v-6.88h-3.41313v-61.92h13.70625v39.33828c2.12592,-0.94256 4.46383,-1.48468 6.93375,-1.49156v-37.81985h6.82625v37.81313h6.93375v-37.84h13.70625v37.84h6.93375v-37.81313h6.82625v37.81313h6.93375v-37.84h10.29313c1.89978,-0.00019 3.43981,-1.54022 3.44,-3.44v-10.32c0.00162,-1.28008 -0.7076,-2.45521 -1.84094,-3.05031l-72.24,-37.84c-0.51173,-0.26706 -1.08242,-0.40107 -1.65953,-0.38969zM86,17.65016l68.8,36.03266v4.79719h-10.18563c-0.0472,-0.0019 -0.0867,-0.02687 -0.13437,-0.02687h-13.76c-0.04763,0 -0.08722,0.02497 -0.13437,0.02687h-20.37125c-0.0472,-0.0019 -0.0867,-0.02687 -0.13437,-0.02687h-13.76c-0.04763,0 -0.08722,0.02497 -0.13437,0.02687h-20.08906c-0.13819,-0.01731 -0.2773,-0.02629 -0.41656,-0.02687h-13.76c-0.13254,0.00137 -0.26489,0.01035 -0.3964,0.02687h-19.82703c-0.13819,-0.01731 -0.2773,-0.02629 -0.41656,-0.02687h-13.76c-0.13254,0.00137 -0.26489,0.01035 -0.39641,0.02687h-9.92359v-4.79719zM86,27.52c-7.55869,0 -13.76,6.20131 -13.76,13.76c0,7.55869 6.20131,13.76 13.76,13.76c7.55869,0 13.76,-6.20131 13.76,-13.76c0,-7.55869 -6.20131,-13.76 -13.76,-13.76zM86,34.4c3.84046,0 6.88,3.03954 6.88,6.88c0,3.84046 -3.03954,6.88 -6.88,6.88c-3.84046,0 -6.88,-3.03954 -6.88,-6.88c0,-3.84046 3.03954,-6.88 6.88,-6.88zM44.74687,65.36h13.70625v61.92h-13.70625zM30.98688,65.38687h6.82625v61.86625h-6.82625zM65.38687,65.38687h6.82625v61.86625h-6.82625zM99.76,110.08c-5.44476,0 -10.32,4.2069 -10.32,9.8564v35.32719c0,5.44466 4.55774,9.8564 10.00422,9.8564h59.11156c5.44259,0 10.0095,-4.41637 10.00422,-9.86985v-35.31375c0,-5.64728 -4.87352,-9.8564 -10.32,-9.8564zM99.76,116.96h58.48c1.81192,0 3.44,1.53728 3.44,2.9764v35.32047c0.0016,1.65357 -1.31528,2.98313 -3.12422,2.98313h-59.11156c-1.81192,0 -3.12422,-1.33467 -3.12422,-2.9764v-35.32719c0,-1.43689 1.63324,-2.9764 3.44,-2.9764zM143.2975,123.84c-1.24872,0 -2.2575,0.92401 -2.2575,2.06265v6.19469c0,1.13864 1.01222,2.06265 2.2575,2.06265h9.03672c1.24872,0 2.26078,-0.92401 2.26422,-2.06265v-6.19469c0,-1.13864 -1.0155,-2.06265 -2.26422,-2.06265zM106.64,141.04c-1.24059,-0.01754 -2.39452,0.63425 -3.01993,1.7058c-0.62541,1.07155 -0.62541,2.39684 0,3.46839c0.62541,1.07155 1.77935,1.72335 3.01993,1.7058h3.44c1.24059,0.01754 2.39452,-0.63425 3.01993,-1.7058c0.62541,-1.07155 0.62541,-2.39684 0,-3.46839c-0.62541,-1.07155 -1.77935,-1.72335 -3.01993,-1.7058zM120.4,141.04c-1.24059,-0.01754 -2.39452,0.63425 -3.01993,1.7058c-0.62541,1.07155 -0.62541,2.39684 0,3.46839c0.62541,1.07155 1.77935,1.72335 3.01993,1.7058h3.44c1.24059,0.01754 2.39452,-0.63425 3.01993,-1.7058c0.62541,-1.07155 0.62541,-2.39684 0,-3.46839c-0.62541,-1.07155 -1.77935,-1.72335 -3.01993,-1.7058zM134.16,141.04c-1.24059,-0.01754 -2.39452,0.63425 -3.01993,1.7058c-0.62541,1.07155 -0.62541,2.39684 0,3.46839c0.62541,1.07155 1.77935,1.72335 3.01993,1.7058h3.44c1.24059,0.01754 2.39452,-0.63425 3.01993,-1.7058c0.62541,-1.07155 0.62541,-2.39684 0,-3.46839c-0.62541,-1.07155 -1.77935,-1.72335 -3.01993,-1.7058zM147.92,141.04c-1.24059,-0.01754 -2.39452,0.63425 -3.01993,1.7058c-0.62541,1.07155 -0.62541,2.39684 0,3.46839c0.62541,1.07155 1.77935,1.72335 3.01993,1.7058h3.44c1.24059,0.01754 2.39452,-0.63425 3.01993,-1.7058c0.62541,-1.07155 0.62541,-2.39684 0,-3.46839c-0.62541,-1.07155 -1.77935,-1.72335 -3.01993,-1.7058z"></path></g></g></svg>