<svg width="27" height="20" viewBox="0 0 27 20" fill="none" xmlns="http://www.w3.org/2000/svg">
<path d="M11.6667 20C11.6667 20 10 20 10 18.3333C10 16.6667 11.6667 11.6667 18.3333 11.6667C25 11.6667 26.6667 16.6667 26.6667 18.3333C26.6667 20 25 20 25 20H11.6667ZM18.3333 10C19.6594 10 20.9312 9.47322 21.8689 8.53553C22.8065 7.59785 23.3333 6.32608 23.3333 5C23.3333 3.67392 22.8065 2.40215 21.8689 1.46447C20.9312 0.526784 19.6594 0 18.3333 0C17.0073 0 15.7355 0.526784 14.7978 1.46447C13.8601 2.40215 13.3333 3.67392 13.3333 5C13.3333 6.32608 13.8601 7.59785 14.7978 8.53553C15.7355 9.47322 17.0073 10 18.3333 10Z" fill="#717171"/>
<path fill-rule="evenodd" clip-rule="evenodd" d="M8.69333 20.0001C8.44626 19.4798 8.32304 18.9093 8.33333 18.3334C8.33333 16.0751 9.46667 13.7501 11.56 12.1334C10.5152 11.8115 9.42658 11.654 8.33333 11.6667C1.66667 11.6667 0 16.6667 0 18.3334C0 20.0001 1.66667 20.0001 1.66667 20.0001H8.69333Z" fill="#717171"/>
<path d="M7.49967 9.99984C8.60474 9.99984 9.66455 9.56085 10.446 8.77945C11.2274 7.99805 11.6663 6.93824 11.6663 5.83317C11.6663 4.7281 11.2274 3.66829 10.446 2.88689C9.66455 2.10549 8.60474 1.6665 7.49967 1.6665C6.39461 1.6665 5.3348 2.10549 4.5534 2.88689C3.77199 3.66829 3.33301 4.7281 3.33301 5.83317C3.33301 6.93824 3.77199 7.99805 4.5534 8.77945C5.3348 9.56085 6.39461 9.99984 7.49967 9.99984Z" fill="#717171"/>
</svg>
