<svg width="15" height="15" viewBox="0 0 15 15" fill="none" xmlns="http://www.w3.org/2000/svg">
<path fill-rule="evenodd" clip-rule="evenodd" d="M8.77666 1C8.77666 0.447715 8.32894 0 7.77666 0C7.22437 0 6.77666 0.447715 6.77666 1V5.99992H1.13525C0.582969 5.99992 0.135254 6.44764 0.135254 6.99992C0.135254 7.55221 0.582969 7.99992 1.13525 7.99992H6.77666V13.7289C6.77666 14.2812 7.22437 14.7289 7.77666 14.7289C8.32894 14.7289 8.77666 14.2812 8.77666 13.7289V7.99992H13.8642C14.4165 7.99992 14.8642 7.55221 14.8642 6.99992C14.8642 6.44764 14.4165 5.99992 13.8642 5.99992H8.77666V1Z" fill="white"/>
</svg>
