<svg width="18" height="18" viewBox="0 0 18 18" fill="none" xmlns="http://www.w3.org/2000/svg">
<path d="M9 0C4.02938 0 0 4.02938 0 9C0 13.9706 4.02938 18 9 18C13.9706 18 18 13.9706 18 9C18 4.02938 13.9706 0 9 0V0ZM14.1929 8.36095C13.7667 8.85122 13.2059 9.2056 12.5801 9.38018C11.9543 9.55476 11.2911 9.54185 10.6726 9.34306L6.2221 14.4617C5.99321 14.7198 5.67167 14.877 5.32743 14.8992C4.98319 14.9214 4.6441 14.8068 4.38394 14.5803C4.12379 14.3538 3.96361 14.0337 3.93826 13.6896C3.91291 13.3456 4.02444 13.0055 4.24859 12.7433L8.70586 7.61972C8.43348 7.05194 8.32862 6.41828 8.40359 5.79302C8.47856 5.16777 8.73025 4.57685 9.12914 4.08956C9.52803 3.60227 10.0576 3.23882 10.6557 3.04182C11.2538 2.84481 11.8957 2.82243 12.5061 2.97729L10.8001 4.96629L11.3574 6.58869L13.0436 6.91688L14.7527 4.92294C14.9889 5.49129 15.0618 6.11428 14.9631 6.72179C14.8644 7.3293 14.5981 7.8972 14.1942 8.36157L14.1929 8.36095Z" fill="#717171"/>
</svg>
