<svg width="15" height="15" viewBox="0 0 15 15" fill="none" xmlns="http://www.w3.org/2000/svg">
<path d="M6.00956 1.76752C6.15019 1.76752 6.28506 1.82338 6.3845 1.92282C6.48395 2.02227 6.53981 2.15714 6.53981 2.29777V7.95383H12.1959C12.324 7.95383 12.4478 8.00023 12.5444 8.08446C12.6409 8.16868 12.7037 8.28502 12.7212 8.41197L12.7261 8.48408C12.7261 11.9979 9.87688 14.4936 6.36306 14.4936C4.67547 14.4936 3.057 13.8232 1.8637 12.6299C0.670392 11.4366 0 9.81817 0 8.13058C0 4.61675 2.49573 1.76752 6.00956 1.76752ZM8.13058 0C9.81817 0 11.4366 0.670392 12.6299 1.8637C13.8232 3.057 14.4936 4.67547 14.4936 6.36306C14.4936 6.50369 14.4378 6.63856 14.3383 6.73801C14.2389 6.83745 14.104 6.89332 13.9634 6.89332H8.13058C7.98994 6.89332 7.85507 6.83745 7.75563 6.73801C7.65619 6.63856 7.60032 6.50369 7.60032 6.36306V0.530255C7.60032 0.389623 7.65619 0.25475 7.75563 0.155308C7.85507 0.055866 7.98994 0 8.13058 0V0Z" fill="#717171"/>
</svg>
