<svg
  width="18"
  height="22"
  viewBox="0 0 18 22"
  fill="none"
  xmlns="http://www.w3.org/2000/svg"
>
<path
    d="M18 15.6717C18 15.3467 17.9345 15.0249 17.8073 14.7246C17.6801 14.4243 17.4936 14.1515 17.2585 13.9217C17.0235 13.692 16.7444 13.5097 16.4373 13.3854C16.1302 13.2612 15.8011 13.1973 15.4688 13.1974H2.53125C2.1988 13.1973 1.86958 13.2612 1.56241 13.3856C1.25524 13.5099 0.976134 13.6922 0.741057 13.9221C0.505979 14.152 0.319534 14.425 0.192379 14.7254C0.0652242 15.0258 -0.000147604 15.3477 2.50246e-07 15.6728V16.685C2.50246e-07 17.3132 0.200251 17.9271 0.573751 18.4398C2.30963 20.8206 5.14688 22 8.9955 22C12.843 22 15.6836 20.8217 17.4218 18.4409C17.7969 17.9284 17.9991 17.3142 18 16.6839V15.6728V15.6717ZM14.6216 5.50162C14.6218 4.34307 14.2479 3.21406 13.5533 2.27555C12.8587 1.33705 11.8788 0.636978 10.7534 0.275154C9.62795 -0.0866703 8.41444 -0.0917715 7.28589 0.260578C6.15733 0.612927 5.17134 1.30474 4.4685 2.23737C4.38698 2.21212 4.30201 2.19913 4.2165 2.19886H1.40625C1.18247 2.19886 0.967863 2.28579 0.809629 2.44054C0.651395 2.59528 0.5625 2.80516 0.5625 3.024V9.07282C0.562205 9.47032 0.642009 9.86398 0.797352 10.2313C0.952695 10.5986 1.18053 10.9324 1.46784 11.2136C1.75515 11.4948 2.09631 11.7178 2.4718 11.87C2.8473 12.0222 3.24978 12.1005 3.65625 12.1005H3.9375V12.0961H3.94875C4.13935 12.0964 4.32689 12.0492 4.4937 11.9591C4.66051 11.8689 4.8011 11.7387 4.90222 11.5807C5.00333 11.4226 5.06166 11.2421 5.07169 11.0559C5.08172 10.8698 5.04313 10.6842 4.95955 10.5167C4.87597 10.3492 4.75016 10.2052 4.59397 10.0984C4.43777 9.99155 4.25634 9.92537 4.06677 9.90606C3.87719 9.88676 3.68571 9.91497 3.51036 9.98804C3.33501 10.0611 3.18157 10.1766 3.0645 10.3237C2.82087 10.2132 2.6147 10.0368 2.47037 9.8153C2.32603 9.59382 2.24956 9.33656 2.25 9.07392V8.79997H3.0915C3.519 8.79997 3.91613 8.66575 4.239 8.43911C4.88969 9.44795 5.85804 10.2226 6.99812 10.6464C8.13821 11.0702 9.38825 11.1201 10.5599 10.7886C11.7315 10.4571 12.7612 9.76222 13.4938 8.80861C14.2264 7.85501 14.6222 6.69437 14.6216 5.50162V5.50162ZM3.37163 5.385C3.36998 5.46274 3.36998 5.5405 3.37163 5.61824V6.87355C3.37163 6.9465 3.34199 7.01645 3.28925 7.06804C3.2365 7.11962 3.16497 7.14859 3.09038 7.14859H2.25V3.85024H3.37275V5.385H3.37163Z"
    fill="#717171"
  />
</svg>
