<svg width="19" height="18" viewBox="0 0 19 18" fill="none" xmlns="http://www.w3.org/2000/svg">
<path d="M11.1653 18H9.66617C9.56677 18 9.47145 17.9605 9.40116 17.8902C9.33088 17.8198 9.2914 17.7245 9.2914 17.625V16.875H8.54185V17.625C8.54185 17.7245 8.50237 17.8198 8.43209 17.8902C8.3618 17.9605 8.26648 18 8.16708 18H6.66799C6.5686 18 6.47327 17.9605 6.40299 17.8902C6.33271 17.8198 6.29322 17.7245 6.29322 17.625V16.875H5.54368V17.625C5.54368 17.7245 5.50419 17.8198 5.43391 17.8902C5.36363 17.9605 5.2683 18 5.16891 18H3.66982C3.57042 18 3.4751 17.9605 3.40482 17.8902C3.33453 17.8198 3.29505 17.7245 3.29505 17.625V16.875H2.54551V17.625C2.54551 17.7245 2.50602 17.8198 2.43574 17.8902C2.36545 17.9605 2.27013 18 2.17073 18H0.671647C0.572251 18 0.476926 17.9605 0.406643 17.8902C0.33636 17.8198 0.296875 17.7245 0.296875 17.625V6H1.04642V17.25H1.79596V16.875C1.79596 16.6761 1.87493 16.4853 2.0155 16.3447C2.15606 16.204 2.34671 16.125 2.54551 16.125H3.29505C3.49384 16.125 3.68449 16.204 3.82506 16.3447C3.96562 16.4853 4.04459 16.6761 4.04459 16.875V17.25H4.79414V16.875C4.79414 16.6761 4.87311 16.4853 5.01367 16.3447C5.15424 16.204 5.34489 16.125 5.54368 16.125H6.29322C6.49201 16.125 6.68266 16.204 6.82323 16.3447C6.9638 16.4853 7.04277 16.6761 7.04277 16.875V17.25H7.79231V16.875C7.79231 16.6761 7.87128 16.4853 8.01185 16.3447C8.15241 16.204 8.34306 16.125 8.54185 16.125H9.2914C9.49019 16.125 9.68084 16.204 9.8214 16.3447C9.96197 16.4853 10.0409 16.6761 10.0409 16.875V17.25H10.7905V13.5H11.54V17.625C11.54 17.7245 11.5005 17.8198 11.4303 17.8902C11.36 17.9605 11.2647 18 11.1653 18Z" fill="#F08800"/>
<path d="M11.54 12.75H10.7905V0.75H10.0409V1.125C10.0409 1.32391 9.96197 1.51468 9.8214 1.65533C9.68084 1.79598 9.49019 1.875 9.2914 1.875H8.54185C8.34306 1.875 8.15241 1.79598 8.01185 1.65533C7.87128 1.51468 7.79231 1.32391 7.79231 1.125V0.75H7.04277V1.125C7.04277 1.32391 6.9638 1.51468 6.82323 1.65533C6.68266 1.79598 6.49201 1.875 6.29322 1.875H5.54368C5.34489 1.875 5.15424 1.79598 5.01367 1.65533C4.87311 1.51468 4.79414 1.32391 4.79414 1.125V0.75H4.04459V1.125C4.04459 1.32391 3.96562 1.51468 3.82506 1.65533C3.68449 1.79598 3.49384 1.875 3.29505 1.875H2.54551C2.34671 1.875 2.15606 1.79598 2.0155 1.65533C1.87493 1.51468 1.79596 1.32391 1.79596 1.125V0.75H1.04642V5.25H0.296875V0.375C0.296875 0.275544 0.33636 0.180161 0.406643 0.109835C0.476926 0.0395088 0.572251 0 0.671647 0L2.17073 0C2.27013 0 2.36545 0.0395088 2.43574 0.109835C2.50602 0.180161 2.54551 0.275544 2.54551 0.375V1.125H3.29505V0.375C3.29505 0.275544 3.33453 0.180161 3.40482 0.109835C3.4751 0.0395088 3.57042 0 3.66982 0L5.16891 0C5.2683 0 5.36363 0.0395088 5.43391 0.109835C5.50419 0.180161 5.54368 0.275544 5.54368 0.375V1.125H6.29322V0.375C6.29322 0.275544 6.33271 0.180161 6.40299 0.109835C6.47327 0.0395088 6.5686 0 6.66799 0L8.16708 0C8.26648 0 8.3618 0.0395088 8.43209 0.109835C8.50237 0.180161 8.54185 0.275544 8.54185 0.375V1.125H9.2914V0.375C9.2914 0.275544 9.33088 0.180161 9.40116 0.109835C9.47145 0.0395088 9.56677 0 9.66617 0L11.1653 0C11.2647 0 11.36 0.0395088 11.4303 0.109835C11.5005 0.180161 11.54 0.275544 11.54 0.375V12.75Z" fill="#F08800"/>
<path d="M2.17096 14.2501H0.671875V15.0001H2.17096V14.2501Z" fill="#F08800"/>
<path d="M4.42096 14.2501H2.92188V15.0001H4.42096V14.2501Z" fill="#F08800"/>
<path d="M6.67096 14.2501H5.17188V15.0001H6.67096V14.2501Z" fill="#F08800"/>
<path d="M8.92877 14.2501H7.42969V15.0001H8.92877V14.2501Z" fill="#F08800"/>
<path d="M11.1631 14.2501H9.66406V15.0001H11.1631V14.2501Z" fill="#F08800"/>
<path d="M11.1655 2.62488H0.671875V3.37488H11.1655V2.62488Z" fill="#F08800"/>
<path d="M11.1655 3.74988H0.671875V4.49988H11.1655V3.74988Z" fill="#F08800"/>
<path d="M12.671 18H11.1719V17.25H12.4131L15.4773 9.24109L16.1773 9.50921L13.021 17.7592C12.9938 17.8301 12.9459 17.891 12.8834 17.934C12.8209 17.977 12.7468 18 12.671 18Z" fill="#F08800"/>
<path d="M16.4688 8.75889L15.7688 8.49114L17.435 4.13514L16.7379 3.88501L16.6105 4.23039C16.541 4.41536 16.4016 4.56556 16.2224 4.64856C16.0431 4.73157 15.8385 4.74071 15.6526 4.67401L14.9491 4.42164C14.856 4.38862 14.7704 4.33731 14.6973 4.27072C14.6243 4.20413 14.5653 4.12361 14.5238 4.03389C14.4822 3.94541 14.4587 3.84952 14.4546 3.75183C14.4506 3.65415 14.4661 3.55663 14.5002 3.46501L14.6253 3.12751L13.9238 2.87551L13.796 3.22089C13.7263 3.40572 13.5869 3.55575 13.4076 3.63861C13.2284 3.72146 13.0239 3.7305 12.8381 3.66376L12.1346 3.41251C12.042 3.37981 11.9568 3.32903 11.8839 3.26313C11.8111 3.19722 11.752 3.1175 11.7102 3.02859C11.6683 2.93967 11.6446 2.84333 11.6402 2.74515C11.6359 2.64697 11.6511 2.5489 11.6849 2.45664L11.8101 2.11914L11.0781 1.85664L11.3315 1.15051L12.4183 1.54126C12.4649 1.55801 12.5077 1.58382 12.5443 1.61722C12.5809 1.65062 12.6105 1.69094 12.6314 1.73585C12.6523 1.78076 12.6641 1.82937 12.6661 1.87888C12.6681 1.92838 12.6603 1.97779 12.6432 2.02426L12.3868 2.71801L13.0895 2.96101L13.35 2.26614C13.3842 2.17337 13.4536 2.09788 13.5432 2.0561C13.6328 2.01431 13.7352 2.00961 13.8282 2.04301L15.2343 2.55001C15.2809 2.56676 15.3238 2.59257 15.3603 2.62597C15.3969 2.65937 15.4265 2.69969 15.4474 2.7446C15.4683 2.78951 15.4801 2.83812 15.4822 2.88763C15.4842 2.93713 15.4764 2.98654 15.4592 3.03301L15.2032 3.72714L15.9056 3.97014L16.1634 3.27864C16.1976 3.18587 16.2671 3.11038 16.3566 3.0686C16.4462 3.02681 16.5486 3.02211 16.6416 3.05551L18.0489 3.55876C18.096 3.57547 18.1393 3.60145 18.1763 3.63517C18.2132 3.66888 18.243 3.70966 18.264 3.75509C18.285 3.80052 18.2966 3.84968 18.2983 3.89969C18.3 3.9497 18.2916 3.99953 18.2737 4.04626L16.4688 8.75889Z" fill="#F08800"/>
<path d="M11.2922 3.88745L11.0391 4.59338L16.8898 6.69391L17.143 5.98797L11.2922 3.88745Z" fill="#F08800"/>
<path d="M11.2922 5.06653L11.0391 5.77246L16.5043 7.73456L16.7574 7.02862L11.2922 5.06653Z" fill="#F08800"/>
</svg>
